<svg xmlns="http://www.w3.org/2000/svg" viewBox="0 0 1120 1280" width="1120" height="1280">
	<style>
		tspan { white-space:pre }
		.shp0 { fill: #ffffff } 
	</style>
	<g id="Layer">
		<g id="svg_1">
			<path id="svg_2" class="shp0" d="M1118.9 633.1C1115.8 617 1104.4 594.8 1096 588.2C1093.4 586.2 784 408.2 487.5 238C216.3 82.4 77.8 3.7 72 1.7C61 -2.1 43 1.4 27 10.3C17.8 15.5 6.3 26.2 3 32.7L0.5 37.5L0.5 640.5L0.5 1243.5L2.6 1248.1C8.8 1261.5 29.3 1274.5 50.8 1278.6C68.5 1282 74.4 1280.4 100.7 1265.5C184.3 1218 348.8 1123.7 533 1017.8C902.6 805.2 919.2 795.7 1007 745.5C1054 718.5 1094.2 695 1096.3 693.1C1101.1 688.7 1110 675.4 1114 666.5C1119.5 654.2 1121 643.9 1118.9 633.1Z" />
		</g>
	</g>
</svg>